<svg xmlns="http://www.w3.org/2000/svg" viewBox="0 0 320 320">
<rect width="320" height="320" rx="48" fill="#e7efe8"/>
<circle cx="160" cy="125" r="68" fill="#c79b7b"/>
<path d="M93 118c6-62 55-92 105-75 35 12 53 41 42 79-25-20-48-31-78-31-24 0-47 9-69 27z" fill="#173d2a"/>
<path d="M76 300c8-76 43-112 84-112s76 36 84 112" fill="#176b43"/>
<circle cx="136" cy="128" r="7" fill="#1b2a22"/><circle cx="184" cy="128" r="7" fill="#1b2a22"/>
<path d="M143 158c12 8 22 8 34 0" fill="none" stroke="#6f4737" stroke-width="5" stroke-linecap="round"/>
<text x="160" y="285" text-anchor="middle" font-family="Arial,sans-serif" font-size="17" font-weight="700" fill="#f5f3eb">A</text>
<text x="160" y="308" text-anchor="middle" font-family="Arial,sans-serif" font-size="10" letter-spacing="2" fill="#dcebe0">BAMS</text>
</svg>